<svg enable-background="new 0 0 500 500" viewBox="0 0 500 500" xmlns="http://www.w3.org/2000/svg"><g opacity=".2"><path d="m271.3 386.7c-16.2 16.2-32.4 32.4-48.5 48.6-1.8 1.8-1.8 4.8 0 6.5 4.7 4.7 15.6 20.9 22.8 20.9 2.6 0 4.5-2.6 6.1-4.2 10.6-10.6 21.2-21.2 31.8-31.8-8.2-12-12.3-26-12.2-40z"/><path d="m408.3 49.5c-40.9-18.8-89.8-15.1-128.1 8.1-15.7 9.5-28.1 22.3-40.9 35.1-64.8 64.8-129.6 129.7-194.5 194.5-32 32-40.9 83.7-16.9 123 25.9 42.4 81.4 55.7 125.3 34.3 35.3-17.2 64.9-56.8 92-83.9 40-40 79.9-79.9 119.9-119.9 8.4-8.4 16.7-16.7 25.1-25.1 32.6-32.6 23.3-94.2-26.1-103.6-21.4-4-42.5 3.6-59.4 19.1-24.2 22.2-119 119.5-148.2 148.6-1.8 1.8-1.8 4.8 0 6.5l19.2 19.2c5.7 5.7 14.2-7 17.9-10.5 7.3-7 84.7-84.6 116.3-116.2 7.2-7.2 14.1-15.2 21.8-21.8 24.8-24.9 57 8.1 31.9 33.3-21 21-41.9 41.9-62.9 62.9-40 40-79.9 79.9-119.9 119.9-8.4 8.4-16.7 16.7-25.1 25.1-33.5 33.5-96.6 22.1-104-28.8-6.5-44.8 42.9-79.6 71-107.7l122.2-122.2c35-35 69.6-73.6 125.3-63.6 47.6 8.6 80 52.8 76.4 100.5-2.2 28.8-16.6 51.8-36.5 71.6-22.6 22.6-45.2 45.3-67.9 67.9 14 0 28 4 40 12.1l59.4-59.4c64.4-64.4 52.7-179.4-33.3-219z"/></g><path d="m299.4 343.9c-23.7 23.7-23.7 62.3 0 86s62.3 23.7 86 0 23.7-62.3 0-86-62.3-23.7-86 0zm74.6 74.5c-17.4 17.4-45.7 17.4-63.2 0-17.4-17.4-17.4-45.7 0-63.2 17.4-17.4 45.7-17.4 63.2 0 17.4 17.5 17.4 45.8 0 63.2zm-21.7-61.3v19.9h19.9c1.4 0 2.5 1.1 2.5 2.5v14.7c0 1.4-1.1 2.5-2.5 2.5h-19.9v19.9c0 1.4-1.1 2.5-2.5 2.5h-14.7c-1.4 0-2.5-1.1-2.5-2.5v-19.9h-20c-1.4 0-2.5-1.1-2.5-2.5v-14.7c0-1.4 1.1-2.5 2.5-2.5h20v-19.9c0-1.4 1.1-2.5 2.5-2.5h14.7c1.3 0 2.5 1.1 2.5 2.5z" fill="#267397"/></svg>